<svg xmlns="http://www.w3.org/2000/svg" width="936" height="500" viewBox="0 0 936 500" role="img" aria-label="BTC ETH USDT USDC 区别图">
  <defs>
    <filter id="softShadow" x="-20%" y="-20%" width="140%" height="140%">
      <feDropShadow dx="0" dy="16" stdDeviation="12" flood-color="#17172A" flood-opacity="0.12"/>
    </filter>
    <marker id="arrow" markerWidth="12" markerHeight="12" refX="10" refY="6" orient="auto">
      <path d="M2 2 10 6 2 10" fill="none" stroke="#002FA7" stroke-width="3" stroke-linecap="round" stroke-linejoin="round"/>
    </marker>
  </defs>
  <rect width="936" height="500" rx="34" fill="#FEFCF6"/>
  <g opacity="0.62">
    <circle cx="86" cy="82" r="22" fill="#FFD500"/>
    <circle cx="834" cy="98" r="26" fill="#DCEEFE"/>
    <circle cx="788" cy="420" r="20" fill="#FFE1E6"/>
  </g>
  <path d="M468 96v312" stroke="#17172A" stroke-width="3" stroke-dasharray="10 12" opacity="0.16"/>
  <g filter="url(#softShadow)">
    <rect x="66" y="84" width="360" height="332" rx="34" fill="#FFFFFF" stroke="#17172A" stroke-width="3"/>
    <rect x="510" y="84" width="360" height="332" rx="34" fill="#FFFFFF" stroke="#17172A" stroke-width="3"/>
    <path d="M122 342c54-72 93 28 148-44 42-56 74-20 104-82" fill="none" stroke="#E60012" stroke-width="8" stroke-linecap="round"/>
    <path d="M554 280h274" stroke="#002FA7" stroke-width="8" stroke-linecap="round"/>
    <path d="M628 174c28-34 78-34 106 0" fill="none" stroke="#002FA7" stroke-width="8" stroke-linecap="round"/>
    <path d="M132 190c32-40 86-40 118 0" fill="none" stroke="#FF6B35" stroke-width="8" stroke-linecap="round"/>
    <circle cx="176" cy="246" r="42" fill="#FFD500" stroke="#17172A" stroke-width="3"/>
    <circle cx="306" cy="244" r="42" fill="#DCEEFE" stroke="#17172A" stroke-width="3"/>
    <circle cx="626" cy="246" r="42" fill="#DDF7E4" stroke="#17172A" stroke-width="3"/>
    <circle cx="756" cy="246" r="42" fill="#DCEEFE" stroke="#17172A" stroke-width="3"/>
    <rect x="98" y="118" width="294" height="58" rx="22" fill="#F7F7F2" stroke="#17172A" stroke-width="3"/>
    <rect x="542" y="118" width="294" height="58" rx="22" fill="#F7F7F2" stroke="#17172A" stroke-width="3"/>
    <text x="245" y="156" text-anchor="middle" font-family="PingFang SC, Noto Sans CJK SC, Microsoft YaHei, sans-serif" font-size="28" font-weight="900" fill="#E60012">波动资产</text>
    <text x="689" y="156" text-anchor="middle" font-family="PingFang SC, Noto Sans CJK SC, Microsoft YaHei, sans-serif" font-size="28" font-weight="900" fill="#002FA7">稳定币</text>
    <text x="176" y="258" text-anchor="middle" font-family="PingFang SC, Noto Sans CJK SC, Microsoft YaHei, sans-serif" font-size="30" font-weight="900" fill="#17172A">BTC</text>
    <text x="306" y="258" text-anchor="middle" font-family="PingFang SC, Noto Sans CJK SC, Microsoft YaHei, sans-serif" font-size="30" font-weight="900" fill="#17172A">ETH</text>
    <text x="626" y="258" text-anchor="middle" font-family="PingFang SC, Noto Sans CJK SC, Microsoft YaHei, sans-serif" font-size="28" font-weight="900" fill="#17172A">USDT</text>
    <text x="756" y="258" text-anchor="middle" font-family="PingFang SC, Noto Sans CJK SC, Microsoft YaHei, sans-serif" font-size="28" font-weight="900" fill="#17172A">USDC</text>
    <path d="M366 244h92" stroke="#002FA7" stroke-width="5" stroke-linecap="round" marker-end="url(#arrow)" opacity="0.65"/>
  </g>
</svg>
