<svg xmlns="http://www.w3.org/2000/svg" width="936" height="500" viewBox="0 0 936 500" role="img" aria-label="交易所账户 vs Web3 钱包关系图">
  <defs>
    <filter id="softShadow" x="-20%" y="-20%" width="140%" height="140%">
      <feDropShadow dx="0" dy="16" stdDeviation="12" flood-color="#17172A" flood-opacity="0.12"/>
    </filter>
    <marker id="arrow" markerWidth="12" markerHeight="12" refX="10" refY="6" orient="auto">
      <path d="M2 2 10 6 2 10" fill="none" stroke="#002FA7" stroke-width="3" stroke-linecap="round" stroke-linejoin="round"/>
    </marker>
  </defs>
  <rect width="936" height="500" rx="34" fill="#FEFCF6"/>
  <g opacity="0.62">
    <circle cx="100" cy="86" r="22" fill="#FFD500"/>
    <circle cx="822" cy="94" r="28" fill="#DCEEFE"/>
    <circle cx="480" cy="418" r="20" fill="#FFE1E6"/>
  </g>
  <g filter="url(#softShadow)">
    <rect x="70" y="98" width="320" height="304" rx="34" fill="#FFFFFF" stroke="#17172A" stroke-width="3"/>
    <rect x="546" y="98" width="320" height="304" rx="34" fill="#FFFFFF" stroke="#17172A" stroke-width="3"/>
    <path d="M398 248h130" stroke="#002FA7" stroke-width="7" stroke-linecap="round" marker-end="url(#arrow)"/>
    <path d="M528 300H398" stroke="#FF6B35" stroke-width="6" stroke-linecap="round" marker-end="url(#arrow)" opacity="0.82"/>
    <rect x="126" y="142" width="208" height="64" rx="24" fill="#F7F7F2" stroke="#17172A" stroke-width="3"/>
    <rect x="596" y="142" width="220" height="64" rx="24" fill="#F7F7F2" stroke="#17172A" stroke-width="3"/>
    <text x="230" y="184" text-anchor="middle" font-family="PingFang SC, Noto Sans CJK SC, Microsoft YaHei, sans-serif" font-size="30" font-weight="900" fill="#002FA7">交易所</text>
    <text x="706" y="184" text-anchor="middle" font-family="PingFang SC, Noto Sans CJK SC, Microsoft YaHei, sans-serif" font-size="30" font-weight="900" fill="#002FA7">Web3 钱包</text>
    <g transform="translate(150 240)">
      <rect x="0" y="0" width="160" height="88" rx="24" fill="#DCEEFE" stroke="#17172A" stroke-width="3"/>
      <path d="M38 48h84" stroke="#17172A" stroke-width="4" stroke-linecap="round"/>
      <path d="M38 66h54" stroke="#17172A" stroke-width="4" stroke-linecap="round"/>
      <text x="80" y="-18" text-anchor="middle" font-family="PingFang SC, Noto Sans CJK SC, Microsoft YaHei, sans-serif" font-size="25" font-weight="900" fill="#17172A">账户余额</text>
    </g>
    <g transform="translate(624 232)">
      <rect x="0" y="0" width="164" height="98" rx="28" fill="#FFFFFF" stroke="#17172A" stroke-width="3"/>
      <circle cx="42" cy="50" r="22" fill="#FFD500" stroke="#17172A" stroke-width="3"/>
      <path d="M74 38h54M74 62h42" stroke="#17172A" stroke-width="4" stroke-linecap="round"/>
      <text x="82" y="-14" text-anchor="middle" font-family="PingFang SC, Noto Sans CJK SC, Microsoft YaHei, sans-serif" font-size="25" font-weight="900" fill="#17172A">钱包地址</text>
    </g>
    <rect x="620" y="348" width="172" height="52" rx="20" fill="#FFF4B8" stroke="#17172A" stroke-width="3"/>
    <text x="706" y="383" text-anchor="middle" font-family="PingFang SC, Noto Sans CJK SC, Microsoft YaHei, sans-serif" font-size="25" font-weight="900" fill="#17172A">助记词</text>
  </g>
</svg>
