<svg xmlns="http://www.w3.org/2000/svg" width="936" height="500" viewBox="0 0 936 500" role="img" aria-label="USDT 不同链转账示意图">
  <defs>
    <filter id="softShadow" x="-20%" y="-20%" width="140%" height="140%">
      <feDropShadow dx="0" dy="16" stdDeviation="12" flood-color="#17172A" flood-opacity="0.12"/>
    </filter>
    <marker id="arrow" markerWidth="12" markerHeight="12" refX="10" refY="6" orient="auto">
      <path d="M2 2 10 6 2 10" fill="none" stroke="#FF6B35" stroke-width="3" stroke-linecap="round" stroke-linejoin="round"/>
    </marker>
  </defs>
  <rect width="936" height="500" rx="34" fill="#FEFCF6"/>
  <g opacity="0.62">
    <circle cx="102" cy="84" r="22" fill="#FFD500"/>
    <circle cx="834" cy="100" r="28" fill="#DCEEFE"/>
    <circle cx="758" cy="418" r="20" fill="#FFE1E6"/>
  </g>
  <g filter="url(#softShadow)">
    <rect x="74" y="82" width="788" height="332" rx="38" fill="#FFFFFF" stroke="#17172A" stroke-width="3"/>
    <rect x="124" y="154" width="170" height="78" rx="26" fill="#DDF7E4" stroke="#17172A" stroke-width="3"/>
    <rect x="384" y="154" width="170" height="78" rx="26" fill="#DCEEFE" stroke="#17172A" stroke-width="3"/>
    <rect x="644" y="154" width="170" height="78" rx="26" fill="#FFF4B8" stroke="#17172A" stroke-width="3"/>
    <text x="209" y="204" text-anchor="middle" font-family="PingFang SC, Noto Sans CJK SC, Microsoft YaHei, sans-serif" font-size="30" font-weight="900" fill="#17172A">TRC20</text>
    <text x="469" y="204" text-anchor="middle" font-family="PingFang SC, Noto Sans CJK SC, Microsoft YaHei, sans-serif" font-size="30" font-weight="900" fill="#17172A">ERC20</text>
    <text x="729" y="204" text-anchor="middle" font-family="PingFang SC, Noto Sans CJK SC, Microsoft YaHei, sans-serif" font-size="30" font-weight="900" fill="#17172A">BEP20</text>
    <path d="M208 278h520" stroke="#FF6B35" stroke-width="7" stroke-linecap="round" marker-end="url(#arrow)"/>
    <path d="M209 232v44M469 232v44M729 232v44" stroke="#17172A" stroke-width="3" stroke-dasharray="8 9" opacity="0.35"/>
    <rect x="312" y="326" width="312" height="64" rx="24" fill="#F7F7F2" stroke="#17172A" stroke-width="3"/>
    <text x="468" y="368" text-anchor="middle" font-family="PingFang SC, Noto Sans CJK SC, Microsoft YaHei, sans-serif" font-size="30" font-weight="900" fill="#E60012">链一致</text>
  </g>
</svg>
