<svg xmlns="http://www.w3.org/2000/svg" width="936" height="500" viewBox="0 0 936 500" role="img" aria-label="加密货币购买美股机制图">
  <defs>
    <filter id="softShadow" x="-20%" y="-20%" width="140%" height="140%">
      <feDropShadow dx="0" dy="16" stdDeviation="12" flood-color="#17172A" flood-opacity="0.12"/>
    </filter>
    <marker id="arrow" markerWidth="12" markerHeight="12" refX="10" refY="6" orient="auto">
      <path d="M2 2 10 6 2 10" fill="none" stroke="#002FA7" stroke-width="3" stroke-linecap="round" stroke-linejoin="round"/>
    </marker>
  </defs>
  <rect width="936" height="500" rx="34" fill="#FEFCF6"/>
  <g opacity="0.62">
    <circle cx="94" cy="86" r="22" fill="#FFD500"/>
    <circle cx="836" cy="96" r="28" fill="#DCEEFE"/>
    <circle cx="740" cy="420" r="20" fill="#FFE1E6"/>
  </g>
  <g filter="url(#softShadow)">
    <path d="M74 374H862c34 0 54 18 46 42-8 24-42 38-78 38H108c-35 0-67-16-74-38-8-24 5-42 40-42Z" fill="#FFFFFF" stroke="#17172A" stroke-width="3"/>
    <g transform="translate(78 176)">
      <rect x="0" y="32" width="158" height="84" rx="26" fill="#FFFFFF" stroke="#17172A" stroke-width="3"/>
      <circle cx="40" cy="76" r="24" fill="#FFD500" stroke="#17172A" stroke-width="3"/>
      <path d="M74 64h52M74 84h34" stroke="#17172A" stroke-width="4" stroke-linecap="round"/>
      <rect x="-6" y="140" width="170" height="64" rx="24" fill="#F7F7F2" stroke="#17172A" stroke-width="3"/>
      <text x="79" y="182" text-anchor="middle" font-family="PingFang SC, Noto Sans CJK SC, Microsoft YaHei, sans-serif" font-size="28" font-weight="900" fill="#002FA7">钱包</text>
    </g>
    <g transform="translate(292 176)">
      <rect x="0" y="32" width="158" height="84" rx="26" fill="#DDF7E4" stroke="#17172A" stroke-width="3"/>
      <circle cx="78" cy="74" r="28" fill="#FFFFFF" stroke="#17172A" stroke-width="3"/>
      <path d="M56 74h44" stroke="#17172A" stroke-width="5" stroke-linecap="round"/>
      <rect x="-6" y="140" width="170" height="64" rx="24" fill="#F7F7F2" stroke="#17172A" stroke-width="3"/>
      <text x="79" y="182" text-anchor="middle" font-family="PingFang SC, Noto Sans CJK SC, Microsoft YaHei, sans-serif" font-size="28" font-weight="900" fill="#002FA7">稳定币</text>
    </g>
    <g transform="translate(506 176)">
      <rect x="0" y="32" width="158" height="84" rx="26" fill="#DCEEFE" stroke="#17172A" stroke-width="3"/>
      <path d="M34 92h22V62h22v30h22V48h22v44" fill="none" stroke="#17172A" stroke-width="6" stroke-linecap="round" stroke-linejoin="round"/>
      <rect x="-10" y="140" width="178" height="64" rx="24" fill="#F7F7F2" stroke="#17172A" stroke-width="3"/>
      <text x="79" y="182" text-anchor="middle" font-family="PingFang SC, Noto Sans CJK SC, Microsoft YaHei, sans-serif" font-size="27" font-weight="900" fill="#002FA7">美股产品</text>
    </g>
    <g transform="translate(720 176)">
      <rect x="0" y="32" width="158" height="84" rx="26" fill="#FFF4B8" stroke="#17172A" stroke-width="3"/>
      <path d="M48 62c28-26 60-22 62 10 2 30-30 38-62 28" fill="none" stroke="#17172A" stroke-width="6" stroke-linecap="round"/>
      <rect x="-6" y="140" width="170" height="64" rx="24" fill="#F7F7F2" stroke="#17172A" stroke-width="3"/>
      <text x="79" y="182" text-anchor="middle" font-family="PingFang SC, Noto Sans CJK SC, Microsoft YaHei, sans-serif" font-size="28" font-weight="900" fill="#002FA7">股息</text>
    </g>
    <path d="M238 250h38M452 250h38M666 250h38" stroke="#002FA7" stroke-width="7" stroke-linecap="round" marker-end="url(#arrow)"/>
  </g>
</svg>
